<?xml version="1.0" encoding="UTF-8" standalone="no"?><svg xmlns="http://www.w3.org/2000/svg" xmlns:xlink="http://www.w3.org/1999/xlink" contentScriptType="application/ecmascript" contentStyleType="text/css" height="564px" preserveAspectRatio="none" style="width:570px;height:564px;" version="1.1" viewBox="0 0 570 564" width="570px" zoomAndPan="magnify"><defs><filter height="300%" id="f1m8kosjzlgb26" width="300%" x="-1" y="-1"><feGaussianBlur result="blurOut" stdDeviation="2.0"/><feColorMatrix in="blurOut" result="blurOut2" type="matrix" values="0 0 0 0 0 0 0 0 0 0 0 0 0 0 0 0 0 0 .4 0"/><feOffset dx="4.0" dy="4.0" in="blurOut2" result="blurOut3"/><feBlend in="SourceGraphic" in2="blurOut3" mode="normal"/></filter></defs><g><line style="stroke: #A80036; stroke-width: 1.0; stroke-dasharray: 5.0,5.0;" x1="36" x2="36" y1="38.2969" y2="524.4219"/><line style="stroke: #A80036; stroke-width: 1.0; stroke-dasharray: 5.0,5.0;" x1="532.5" x2="532.5" y1="38.2969" y2="524.4219"/><rect fill="#FEFECE" filter="url(#f1m8kosjzlgb26)" height="30.2969" style="stroke: #A80036; stroke-width: 1.5;" width="53" x="8" y="3"/><text fill="#000000" font-family="sans-serif" font-size="14" lengthAdjust="spacingAndGlyphs" textLength="39" x="15" y="22.9951">Client</text><rect fill="#FEFECE" filter="url(#f1m8kosjzlgb26)" height="30.2969" style="stroke: #A80036; stroke-width: 1.5;" width="53" x="8" y="523.4219"/><text fill="#000000" font-family="sans-serif" font-size="14" lengthAdjust="spacingAndGlyphs" textLength="39" x="15" y="543.417">Client</text><rect fill="#FEFECE" filter="url(#f1m8kosjzlgb26)" height="30.2969" style="stroke: #A80036; stroke-width: 1.5;" width="58" x="501.5" y="3"/><text fill="#000000" font-family="sans-serif" font-size="14" lengthAdjust="spacingAndGlyphs" textLength="44" x="508.5" y="22.9951">Server</text><rect fill="#FEFECE" filter="url(#f1m8kosjzlgb26)" height="30.2969" style="stroke: #A80036; stroke-width: 1.5;" width="58" x="501.5" y="523.4219"/><text fill="#000000" font-family="sans-serif" font-size="14" lengthAdjust="spacingAndGlyphs" textLength="44" x="508.5" y="543.417">Server</text><polygon fill="#A80036" points="520.5,65.4297,530.5,69.4297,520.5,73.4297,524.5,69.4297" style="stroke: #A80036; stroke-width: 1.0;"/><line style="stroke: #A80036; stroke-width: 1.0; stroke-dasharray: 2.0,2.0;" x1="36.5" x2="526.5" y1="69.4297" y2="69.4297"/><text fill="#000000" font-family="sans-serif" font-size="13" lengthAdjust="spacingAndGlyphs" textLength="294" x="43.5" y="64.3638">// Client is joining channels 'chan1' and 'chan2'</text><polygon fill="#A80036" points="520.5,94.5625,530.5,98.5625,520.5,102.5625,524.5,98.5625" style="stroke: #A80036; stroke-width: 1.0;"/><line style="stroke: #A80036; stroke-width: 1.0;" x1="36.5" x2="526.5" y1="98.5625" y2="98.5625"/><text fill="#000000" font-family="sans-serif" font-size="13" lengthAdjust="spacingAndGlyphs" textLength="265" x="43.5" y="93.4966">{ topic: 'join', payload: ['chan1', 'chan2'] }</text><polygon fill="#A80036" points="47.5,123.6953,37.5,127.6953,47.5,131.6953,43.5,127.6953" style="stroke: #A80036; stroke-width: 1.0;"/><line style="stroke: #A80036; stroke-width: 1.0; stroke-dasharray: 2.0,2.0;" x1="41.5" x2="531.5" y1="127.6953" y2="127.6953"/><text fill="#000000" font-family="sans-serif" font-size="13" lengthAdjust="spacingAndGlyphs" textLength="263" x="53.5" y="122.6294">// Server is confirming chan1 subscription</text><polygon fill="#A80036" points="47.5,152.8281,37.5,156.8281,47.5,160.8281,43.5,156.8281" style="stroke: #A80036; stroke-width: 1.0;"/><line style="stroke: #A80036; stroke-width: 1.0;" x1="41.5" x2="531.5" y1="156.8281" y2="156.8281"/><text fill="#000000" font-family="sans-serif" font-size="13" lengthAdjust="spacingAndGlyphs" textLength="225" x="53.5" y="151.7622">{ topic: '@join', payload: ['chan1'] }</text><polygon fill="#A80036" points="47.5,181.9609,37.5,185.9609,47.5,189.9609,43.5,185.9609" style="stroke: #A80036; stroke-width: 1.0;"/><line style="stroke: #A80036; stroke-width: 1.0; stroke-dasharray: 2.0,2.0;" x1="41.5" x2="531.5" y1="185.9609" y2="185.9609"/><text fill="#000000" font-family="sans-serif" font-size="13" lengthAdjust="spacingAndGlyphs" textLength="259" x="53.5" y="180.895">// Server is rejectingg chan2 subscription</text><polygon fill="#A80036" points="47.5,211.0938,37.5,215.0938,47.5,219.0938,43.5,215.0938" style="stroke: #A80036; stroke-width: 1.0;"/><line style="stroke: #A80036; stroke-width: 1.0;" x1="41.5" x2="531.5" y1="215.0938" y2="215.0938"/><text fill="#000000" font-family="sans-serif" font-size="13" lengthAdjust="spacingAndGlyphs" textLength="223" x="53.5" y="210.0278">{ topic: '#join', payload: ['chan2'] }</text><polygon fill="#A80036" points="47.5,240.2266,37.5,244.2266,47.5,248.2266,43.5,244.2266" style="stroke: #A80036; stroke-width: 1.0;"/><line style="stroke: #A80036; stroke-width: 1.0;" x1="41.5" x2="531.5" y1="244.2266" y2="244.2266"/><text fill="#000000" font-family="sans-serif" font-size="13" lengthAdjust="spacingAndGlyphs" textLength="472" x="53.5" y="239.1606">topic: 'chan1', payload: 'Event 1: SomeThing from successfull subscription'</text><polygon fill="#A80036" points="47.5,269.3594,37.5,273.3594,47.5,277.3594,43.5,273.3594" style="stroke: #A80036; stroke-width: 1.0;"/><line style="stroke: #A80036; stroke-width: 1.0;" x1="41.5" x2="531.5" y1="273.3594" y2="273.3594"/><text fill="#000000" font-family="sans-serif" font-size="13" lengthAdjust="spacingAndGlyphs" textLength="472" x="53.5" y="268.2935">topic: 'chan1', payload: 'Event 2: SomeThing from successfull subscription'</text><polygon fill="#A80036" points="47.5,298.4922,37.5,302.4922,47.5,306.4922,43.5,302.4922" style="stroke: #A80036; stroke-width: 1.0;"/><line style="stroke: #A80036; stroke-width: 1.0;" x1="41.5" x2="531.5" y1="302.4922" y2="302.4922"/><text fill="#000000" font-family="sans-serif" font-size="13" lengthAdjust="spacingAndGlyphs" textLength="472" x="53.5" y="297.4263">topic: 'chan1', payload: 'Event 3: SomeThing from successfull subscription'</text><polygon fill="#A80036" points="520.5,327.625,530.5,331.625,520.5,335.625,524.5,331.625" style="stroke: #A80036; stroke-width: 1.0;"/><line style="stroke: #A80036; stroke-width: 1.0;" x1="36.5" x2="526.5" y1="331.625" y2="331.625"/><text fill="#000000" font-family="sans-serif" font-size="13" lengthAdjust="spacingAndGlyphs" textLength="253" x="43.5" y="326.5591">topic: 'leave', payload: ['chan1', 'chan2']</text><polygon fill="#A80036" points="47.5,356.7578,37.5,360.7578,47.5,364.7578,43.5,360.7578" style="stroke: #A80036; stroke-width: 1.0;"/><line style="stroke: #A80036; stroke-width: 1.0; stroke-dasharray: 2.0,2.0;" x1="41.5" x2="531.5" y1="360.7578" y2="360.7578"/><text fill="#000000" font-family="sans-serif" font-size="13" lengthAdjust="spacingAndGlyphs" textLength="279" x="53.5" y="355.6919">// Server is confirming chan1 unsubscription</text><polygon fill="#A80036" points="47.5,385.8906,37.5,389.8906,47.5,393.8906,43.5,389.8906" style="stroke: #A80036; stroke-width: 1.0;"/><line style="stroke: #A80036; stroke-width: 1.0;" x1="41.5" x2="531.5" y1="389.8906" y2="389.8906"/><text fill="#000000" font-family="sans-serif" font-size="13" lengthAdjust="spacingAndGlyphs" textLength="213" x="53.5" y="384.8247">topic: '@leave', payload: ['chan1']</text><polygon fill="#A80036" points="47.5,415.0234,37.5,419.0234,47.5,423.0234,43.5,419.0234" style="stroke: #A80036; stroke-width: 1.0;"/><line style="stroke: #A80036; stroke-width: 1.0; stroke-dasharray: 2.0,2.0;" x1="41.5" x2="531.5" y1="419.0234" y2="419.0234"/><text fill="#000000" font-family="sans-serif" font-size="13" lengthAdjust="spacingAndGlyphs" textLength="267" x="53.5" y="413.9575">// Server is rejecting chan2 unsubscription</text><polygon fill="#A80036" points="47.5,444.1563,37.5,448.1563,47.5,452.1563,43.5,448.1563" style="stroke: #A80036; stroke-width: 1.0;"/><line style="stroke: #A80036; stroke-width: 1.0;" x1="41.5" x2="531.5" y1="448.1563" y2="448.1563"/><text fill="#000000" font-family="sans-serif" font-size="13" lengthAdjust="spacingAndGlyphs" textLength="211" x="53.5" y="443.0903">topic: '#leave', payload: ['chan2']</text><polygon fill="#A80036" points="520.5,473.2891,530.5,477.2891,520.5,481.2891,524.5,477.2891" style="stroke: #A80036; stroke-width: 1.0;"/><line style="stroke: #A80036; stroke-width: 1.0; stroke-dasharray: 2.0,2.0;" x1="36.5" x2="526.5" y1="477.2891" y2="477.2891"/><text fill="#000000" font-family="sans-serif" font-size="13" lengthAdjust="spacingAndGlyphs" textLength="249" x="43.5" y="472.2231">// Client is sending a custom command</text><polygon fill="#A80036" points="520.5,502.4219,530.5,506.4219,520.5,510.4219,524.5,506.4219" style="stroke: #A80036; stroke-width: 1.0;"/><line style="stroke: #A80036; stroke-width: 1.0;" x1="36.5" x2="526.5" y1="506.4219" y2="506.4219"/><text fill="#000000" font-family="sans-serif" font-size="13" lengthAdjust="spacingAndGlyphs" textLength="235" x="43.5" y="501.356">topic: 'custom', payload: 'Something'</text><!--MD5=[598e0cf47ba1843fa0c36363f5896de1]
@startuml
Client - -> Server: // Client is joining channels 'chan1' and 'chan2'
Client -> Server: { topic: 'join', payload: ['chan1', 'chan2'] }
Server - -> Client: // Server is confirming chan1 subscription
Server -> Client: { topic: '@join', payload: ['chan1'] }
Server - -> Client: // Server is rejectingg chan2 subscription
Server -> Client: { topic: '#join', payload: ['chan2'] }
Server -> Client: topic: 'chan1', payload: 'Event 1: SomeThing from successfull subscription'
Server -> Client: topic: 'chan1', payload: 'Event 2: SomeThing from successfull subscription'
Server -> Client: topic: 'chan1', payload: 'Event 3: SomeThing from successfull subscription'
Client -> Server: topic: 'leave', payload: ['chan1', 'chan2']
Server - -> Client: // Server is confirming chan1 unsubscription
Server -> Client: topic: '@leave', payload: ['chan1']
Server - -> Client: // Server is rejecting chan2 unsubscription
Server -> Client: topic: '#leave', payload: ['chan2']
Client - -> Server: // Client is sending a custom command
Client -> Server: topic: 'custom', payload: 'Something'
@enduml

PlantUML version 1.2020.02beta6(Unknown compile time)
(GPL source distribution)
Java Runtime: Java(TM) SE Runtime Environment
JVM: Java HotSpot(TM) 64-Bit Server VM
Java Version: 1.7.0_25-b15
Operating System: Linux
Default Encoding: UTF-8
Language: en
Country: US
--></g></svg>